<svg xmlns="http://www.w3.org/2000/svg" xmlns:xlink="http://www.w3.org/1999/xlink" width="2000" zoomAndPan="magnify" viewBox="0 0 1500 899.99999" height="1200" preserveAspectRatio="xMidYMid meet" version="1.0"><path fill="#000000" d="M 745.082031 855.671875 C 572.503906 855.671875 433.589844 840.410156 328.34375 809.957031 C 223.0625 779.503906 146.496094 734.390625 98.605469 674.589844 C 50.71875 614.820312 26.792969 540.628906 26.792969 451.980469 C 26.792969 363.328125 50.71875 289.136719 98.605469 229.367188 C 146.496094 169.597656 223.0625 124.488281 328.34375 94 C 433.589844 63.546875 572.503906 48.285156 745.082031 48.285156 C 917.660156 48.285156 1056.539062 63.546875 1161.816406 94 C 1267.0625 124.488281 1343.664062 169.597656 1391.554688 229.367188 C 1439.441406 289.136719 1463.367188 363.363281 1463.367188 451.980469 C 1463.367188 540.59375 1439.40625 614.855469 1391.554688 674.589844 C 1343.664062 734.359375 1267.066406 779.46875 1161.816406 809.957031 C 1056.539062 840.410156 917.625 855.671875 745.082031 855.671875 Z M 745.082031 630.082031 C 826.601562 630.082031 897.042969 625.160156 956.410156 615.257812 C 1015.777344 605.351562 1061.65625 587.546875 1094.117188 561.8125 C 1126.578125 536.109375 1142.808594 499.464844 1142.808594 451.980469 C 1142.808594 404.492188 1126.578125 367.878906 1094.117188 342.144531 C 1061.65625 316.445312 1015.742188 298.640625 956.410156 288.734375 C 897.042969 278.828125 826.601562 273.910156 745.082031 273.910156 C 663.558594 273.910156 592.113281 278.863281 530.773438 288.734375 C 469.429688 298.640625 421.542969 316.445312 387.109375 342.144531 C 352.671875 367.878906 335.472656 404.492188 335.472656 451.980469 C 335.472656 499.464844 352.671875 536.078125 387.109375 561.8125 C 421.542969 587.546875 469.429688 605.351562 530.773438 615.257812 C 592.113281 625.160156 663.527344 630.082031 745.082031 630.082031 Z M 745.082031 630.082031 " fill-opacity="1" fill-rule="nonzero"/><path fill="#d5f318" d="M 1321.8125 633.292969 C 1321.8125 634.910156 1321.773438 636.527344 1321.695312 638.140625 C 1321.613281 639.757812 1321.496094 641.367188 1321.335938 642.976562 C 1321.179688 644.585938 1320.980469 646.191406 1320.742188 647.789062 C 1320.507812 649.386719 1320.230469 650.980469 1319.914062 652.566406 C 1319.597656 654.152344 1319.246094 655.730469 1318.851562 657.296875 C 1318.460938 658.867188 1318.027344 660.421875 1317.558594 661.96875 C 1317.089844 663.519531 1316.582031 665.050781 1316.039062 666.574219 C 1315.492188 668.097656 1314.910156 669.605469 1314.292969 671.097656 C 1313.671875 672.59375 1313.019531 674.070312 1312.328125 675.53125 C 1311.636719 676.992188 1310.910156 678.4375 1310.148438 679.863281 C 1309.386719 681.289062 1308.589844 682.695312 1307.757812 684.082031 C 1306.925781 685.46875 1306.0625 686.832031 1305.164062 688.179688 C 1304.265625 689.523438 1303.335938 690.84375 1302.371094 692.140625 C 1301.410156 693.441406 1300.414062 694.714844 1299.386719 695.964844 C 1298.363281 697.214844 1297.308594 698.4375 1296.222656 699.636719 C 1295.136719 700.835938 1294.019531 702.003906 1292.878906 703.148438 C 1291.734375 704.292969 1290.5625 705.40625 1289.367188 706.492188 C 1288.167969 707.578125 1286.945312 708.632812 1285.695312 709.660156 C 1284.445312 710.683594 1283.171875 711.679688 1281.871094 712.640625 C 1280.574219 713.605469 1279.25 714.535156 1277.90625 715.433594 C 1276.5625 716.332031 1275.199219 717.195312 1273.8125 718.027344 C 1272.425781 718.859375 1271.019531 719.65625 1269.59375 720.417969 C 1268.167969 721.179688 1266.722656 721.90625 1265.261719 722.597656 C 1263.800781 723.289062 1262.324219 723.945312 1260.828125 724.5625 C 1259.335938 725.183594 1257.828125 725.761719 1256.304688 726.308594 C 1254.78125 726.851562 1253.246094 727.359375 1251.699219 727.828125 C 1250.152344 728.296875 1248.597656 728.730469 1247.027344 729.121094 C 1245.460938 729.515625 1243.882812 729.871094 1242.296875 730.183594 C 1240.710938 730.5 1239.117188 730.777344 1237.519531 731.015625 C 1235.921875 731.25 1234.316406 731.449219 1232.707031 731.609375 C 1231.097656 731.765625 1229.484375 731.886719 1227.871094 731.964844 C 1226.257812 732.042969 1224.640625 732.082031 1223.023438 732.082031 C 1221.40625 732.082031 1219.792969 732.042969 1218.175781 731.964844 C 1216.5625 731.886719 1214.949219 731.765625 1213.34375 731.609375 C 1211.734375 731.449219 1210.128906 731.25 1208.527344 731.015625 C 1206.929688 730.777344 1205.335938 730.5 1203.75 730.183594 C 1202.164062 729.871094 1200.589844 729.515625 1199.019531 729.121094 C 1197.453125 728.730469 1195.894531 728.296875 1194.347656 727.828125 C 1192.800781 727.359375 1191.265625 726.851562 1189.742188 726.308594 C 1188.222656 725.765625 1186.714844 725.183594 1185.21875 724.5625 C 1183.726562 723.945312 1182.25 723.289062 1180.785156 722.597656 C 1179.324219 721.90625 1177.882812 721.179688 1176.457031 720.417969 C 1175.03125 719.65625 1173.625 718.859375 1172.238281 718.027344 C 1170.851562 717.195312 1169.484375 716.332031 1168.140625 715.433594 C 1166.796875 714.535156 1165.476562 713.605469 1164.175781 712.640625 C 1162.878906 711.679688 1161.605469 710.683594 1160.355469 709.660156 C 1159.105469 708.632812 1157.878906 707.578125 1156.683594 706.492188 C 1155.484375 705.40625 1154.3125 704.292969 1153.171875 703.148438 C 1152.027344 702.003906 1150.914062 700.835938 1149.828125 699.636719 C 1148.742188 698.4375 1147.6875 697.214844 1146.660156 695.964844 C 1145.632812 694.714844 1144.640625 693.441406 1143.675781 692.140625 C 1142.714844 690.84375 1141.78125 689.523438 1140.882812 688.179688 C 1139.988281 686.832031 1139.121094 685.46875 1138.292969 684.082031 C 1137.460938 682.695312 1136.664062 681.289062 1135.902344 679.863281 C 1135.140625 678.4375 1134.414062 676.992188 1133.71875 675.53125 C 1133.03125 674.070312 1132.375 672.59375 1131.753906 671.097656 C 1131.136719 669.605469 1130.554688 668.097656 1130.011719 666.574219 C 1129.464844 665.050781 1128.957031 663.519531 1128.488281 661.972656 C 1128.019531 660.421875 1127.589844 658.867188 1127.195312 657.296875 C 1126.804688 655.730469 1126.449219 654.152344 1126.132812 652.566406 C 1125.816406 650.980469 1125.542969 649.386719 1125.304688 647.789062 C 1125.066406 646.191406 1124.871094 644.585938 1124.710938 642.976562 C 1124.554688 641.367188 1124.433594 639.757812 1124.355469 638.140625 C 1124.277344 636.527344 1124.238281 634.910156 1124.238281 633.292969 C 1124.238281 631.675781 1124.277344 630.0625 1124.355469 628.445312 C 1124.433594 626.832031 1124.554688 625.21875 1124.710938 623.609375 C 1124.871094 622.003906 1125.066406 620.398438 1125.304688 618.796875 C 1125.542969 617.199219 1125.820312 615.605469 1126.132812 614.019531 C 1126.449219 612.433594 1126.804688 610.859375 1127.195312 609.289062 C 1127.589844 607.722656 1128.019531 606.164062 1128.488281 604.617188 C 1128.960938 603.070312 1129.464844 601.535156 1130.011719 600.011719 C 1130.554688 598.488281 1131.136719 596.980469 1131.753906 595.488281 C 1132.375 593.996094 1133.03125 592.515625 1133.71875 591.054688 C 1134.414062 589.59375 1135.140625 588.152344 1135.902344 586.722656 C 1136.664062 585.296875 1137.460938 583.890625 1138.292969 582.503906 C 1139.121094 581.117188 1139.988281 579.753906 1140.886719 578.410156 C 1141.785156 577.066406 1142.714844 575.742188 1143.675781 574.445312 C 1144.640625 573.144531 1145.632812 571.871094 1146.660156 570.621094 C 1147.6875 569.371094 1148.742188 568.148438 1149.828125 566.949219 C 1150.914062 565.753906 1152.027344 564.582031 1153.171875 563.4375 C 1154.3125 562.296875 1155.484375 561.179688 1156.683594 560.09375 C 1157.878906 559.011719 1159.105469 557.953125 1160.355469 556.929688 C 1161.605469 555.902344 1162.878906 554.910156 1164.175781 553.945312 C 1165.476562 552.980469 1166.796875 552.050781 1168.140625 551.152344 C 1169.484375 550.253906 1170.851562 549.390625 1172.238281 548.558594 C 1173.625 547.726562 1175.03125 546.929688 1176.457031 546.167969 C 1177.882812 545.40625 1179.324219 544.679688 1180.785156 543.988281 C 1182.25 543.296875 1183.726562 542.644531 1185.21875 542.023438 C 1186.714844 541.40625 1188.222656 540.824219 1189.742188 540.277344 C 1191.265625 539.734375 1192.800781 539.226562 1194.347656 538.757812 C 1195.894531 538.289062 1197.453125 537.859375 1199.019531 537.464844 C 1200.589844 537.070312 1202.164062 536.71875 1203.75 536.402344 C 1205.335938 536.085938 1206.929688 535.808594 1208.527344 535.574219 C 1210.128906 535.335938 1211.734375 535.136719 1213.339844 534.980469 C 1214.949219 534.820312 1216.5625 534.703125 1218.175781 534.625 C 1219.792969 534.542969 1221.40625 534.503906 1223.023438 534.503906 C 1224.640625 534.503906 1226.257812 534.542969 1227.871094 534.625 C 1229.484375 534.703125 1231.097656 534.820312 1232.707031 534.980469 C 1234.316406 535.136719 1235.921875 535.335938 1237.519531 535.574219 C 1239.117188 535.808594 1240.710938 536.085938 1242.296875 536.402344 C 1243.882812 536.71875 1245.460938 537.070312 1247.027344 537.464844 C 1248.597656 537.859375 1250.152344 538.289062 1251.699219 538.757812 C 1253.246094 539.226562 1254.78125 539.734375 1256.304688 540.277344 C 1257.828125 540.824219 1259.335938 541.40625 1260.828125 542.023438 C 1262.324219 542.644531 1263.800781 543.296875 1265.261719 543.988281 C 1266.722656 544.679688 1268.167969 545.40625 1269.59375 546.167969 C 1271.019531 546.929688 1272.425781 547.726562 1273.8125 548.558594 C 1275.199219 549.390625 1276.5625 550.253906 1277.90625 551.152344 C 1279.253906 552.050781 1280.574219 552.980469 1281.871094 553.945312 C 1283.171875 554.910156 1284.445312 555.902344 1285.695312 556.929688 C 1286.945312 557.953125 1288.167969 559.011719 1289.367188 560.097656 C 1290.5625 561.179688 1291.734375 562.296875 1292.878906 563.4375 C 1294.019531 564.582031 1295.136719 565.753906 1296.222656 566.949219 C 1297.308594 568.148438 1298.363281 569.371094 1299.386719 570.621094 C 1300.414062 571.871094 1301.410156 573.144531 1302.371094 574.445312 C 1303.335938 575.742188 1304.265625 577.066406 1305.164062 578.410156 C 1306.0625 579.753906 1306.925781 581.117188 1307.757812 582.503906 C 1308.589844 583.890625 1309.386719 585.296875 1310.148438 586.722656 C 1310.910156 588.152344 1311.636719 589.59375 1312.328125 591.054688 C 1313.019531 592.515625 1313.671875 593.996094 1314.292969 595.488281 C 1314.910156 596.980469 1315.492188 598.488281 1316.039062 600.011719 C 1316.582031 601.535156 1317.089844 603.070312 1317.558594 604.617188 C 1318.027344 606.164062 1318.457031 607.722656 1318.851562 609.289062 C 1319.246094 610.859375 1319.597656 612.433594 1319.914062 614.019531 C 1320.230469 615.605469 1320.507812 617.199219 1320.742188 618.796875 C 1320.980469 620.398438 1321.179688 622.003906 1321.335938 623.609375 C 1321.496094 625.21875 1321.613281 626.832031 1321.695312 628.445312 C 1321.773438 630.0625 1321.8125 631.675781 1321.8125 633.292969 Z M 1321.8125 633.292969 " fill-opacity="1" fill-rule="nonzero"/></svg>