<svg xmlns="http://www.w3.org/2000/svg" xmlns:xlink="http://www.w3.org/1999/xlink" width="2000" zoomAndPan="magnify" viewBox="0 0 1500 374.999991" height="500" preserveAspectRatio="xMidYMid meet" version="1.0"><path fill="#ffffff" d="M 386.996094 286.636719 L 354.613281 305.082031 L 354.613281 132.058594 L 441.652344 132.058594 L 441.652344 354.863281 L 354.613281 354.863281 L 92.472656 203.074219 L 124.855469 184.273438 L 124.855469 354.851562 L 37.820312 354.851562 L 37.820312 132.050781 L 124.855469 132.050781 L 386.996094 286.617188 Z M 386.996094 286.636719 " fill-opacity="1" fill-rule="nonzero"/><path fill="#ffffff" d="M 697.53125 361.828125 C 646.929688 361.828125 606.195312 357.355469 575.335938 348.425781 C 544.464844 339.496094 522.015625 326.269531 507.972656 308.734375 C 493.933594 291.207031 486.917969 269.453125 486.917969 243.460938 C 486.917969 217.46875 493.933594 195.714844 507.972656 178.1875 C 522.015625 160.664062 544.464844 147.4375 575.335938 138.496094 C 606.195312 129.566406 646.929688 125.09375 697.53125 125.09375 C 748.132812 125.09375 788.855469 129.566406 819.726562 138.496094 C 850.585938 147.4375 873.046875 160.664062 887.089844 178.1875 C 901.132812 195.714844 908.148438 217.476562 908.148438 243.460938 C 908.148438 269.445312 901.121094 291.21875 887.089844 308.734375 C 873.046875 326.257812 850.585938 339.484375 819.726562 348.425781 C 788.855469 357.355469 748.125 361.828125 697.53125 361.828125 Z M 697.53125 295.683594 C 721.433594 295.683594 742.089844 294.242188 759.496094 291.335938 C 776.90625 288.429688 790.359375 283.210938 799.875 275.664062 C 809.394531 268.128906 814.152344 257.386719 814.152344 243.460938 C 814.152344 229.535156 809.394531 218.800781 799.875 211.257812 C 790.359375 203.71875 776.894531 198.5 759.496094 195.585938 C 742.089844 192.691406 721.433594 191.238281 697.53125 191.238281 C 673.628906 191.238281 652.679688 192.691406 634.691406 195.585938 C 616.707031 198.488281 602.664062 203.710938 592.566406 211.257812 C 582.46875 218.800781 577.425781 229.535156 577.425781 243.460938 C 577.425781 257.386719 582.46875 268.121094 592.566406 275.664062 C 602.664062 283.210938 616.707031 288.429688 634.691406 291.335938 C 652.679688 294.242188 673.617188 295.683594 697.53125 295.683594 Z M 697.53125 295.683594 " fill-opacity="1" fill-rule="nonzero"/><path fill="#ffffff" d="M 958.621094 132.058594 L 1045.660156 132.058594 L 1045.660156 354.863281 L 958.621094 354.863281 Z M 958.621094 132.058594 " fill-opacity="1" fill-rule="nonzero"/><path fill="#ffffff" d="M 1099.609375 132.058594 L 1468.625 132.058594 L 1468.625 198.207031 L 1215.1875 302.992188 L 1212.402344 288.714844 L 1468.625 288.714844 L 1468.625 354.863281 L 1099.609375 354.863281 L 1099.609375 288.714844 L 1354.09375 183.929688 L 1356.882812 198.207031 L 1099.617188 198.207031 L 1099.617188 132.058594 Z M 1099.609375 132.058594 " fill-opacity="1" fill-rule="nonzero"/><path fill="#d5f318" d="M 1050.9375 63.3125 C 1050.9375 64.921875 1050.859375 66.523438 1050.703125 68.121094 C 1050.542969 69.722656 1050.308594 71.308594 1049.996094 72.886719 C 1049.683594 74.460938 1049.292969 76.019531 1048.824219 77.554688 C 1048.359375 79.09375 1047.820312 80.605469 1047.203125 82.089844 C 1046.589844 83.574219 1045.902344 85.023438 1045.144531 86.441406 C 1044.386719 87.859375 1043.5625 89.234375 1042.667969 90.570312 C 1041.777344 91.90625 1040.820312 93.195312 1039.800781 94.4375 C 1038.78125 95.679688 1037.703125 96.871094 1036.566406 98.003906 C 1035.433594 99.140625 1034.242188 100.21875 1033 101.238281 C 1031.757812 102.257812 1030.46875 103.214844 1029.132812 104.105469 C 1027.796875 105 1026.421875 105.824219 1025.003906 106.582031 C 1023.585938 107.339844 1022.136719 108.027344 1020.652344 108.640625 C 1019.167969 109.257812 1017.65625 109.796875 1016.117188 110.261719 C 1014.578125 110.730469 1013.023438 111.121094 1011.445312 111.433594 C 1009.871094 111.746094 1008.285156 111.980469 1006.683594 112.140625 C 1005.085938 112.296875 1003.484375 112.375 1001.875 112.375 C 1000.269531 112.375 998.664062 112.296875 997.066406 112.140625 C 995.46875 111.980469 993.878906 111.746094 992.304688 111.433594 C 990.726562 111.121094 989.171875 110.730469 987.632812 110.261719 C 986.097656 109.796875 984.585938 109.257812 983.101562 108.640625 C 981.617188 108.027344 980.164062 107.339844 978.746094 106.582031 C 977.332031 105.824219 975.953125 105 974.617188 104.105469 C 973.28125 103.214844 971.992188 102.257812 970.75 101.238281 C 969.507812 100.21875 968.320312 99.140625 967.183594 98.003906 C 966.046875 96.871094 964.96875 95.679688 963.949219 94.4375 C 962.929688 93.195312 961.972656 91.90625 961.082031 90.570312 C 960.1875 89.234375 959.363281 87.859375 958.605469 86.441406 C 957.847656 85.023438 957.164062 83.574219 956.546875 82.089844 C 955.933594 80.605469 955.390625 79.09375 954.925781 77.554688 C 954.460938 76.019531 954.070312 74.460938 953.757812 72.886719 C 953.441406 71.308594 953.207031 69.722656 953.050781 68.121094 C 952.890625 66.523438 952.8125 64.921875 952.8125 63.3125 C 952.8125 61.707031 952.890625 60.101562 953.050781 58.503906 C 953.207031 56.90625 953.441406 55.316406 953.757812 53.742188 C 954.070312 52.164062 954.460938 50.609375 954.925781 49.070312 C 955.390625 47.535156 955.933594 46.023438 956.546875 44.539062 C 957.164062 43.054688 957.847656 41.601562 958.605469 40.183594 C 959.363281 38.769531 960.1875 37.390625 961.082031 36.054688 C 961.972656 34.71875 962.929688 33.429688 963.949219 32.1875 C 964.96875 30.945312 966.046875 29.757812 967.183594 28.621094 C 968.320312 27.484375 969.507812 26.40625 970.75 25.386719 C 971.992188 24.367188 973.28125 23.410156 974.617188 22.519531 C 975.953125 21.625 977.332031 20.800781 978.746094 20.042969 C 980.164062 19.285156 981.617188 18.601562 983.101562 17.984375 C 984.585938 17.371094 986.097656 16.828125 987.632812 16.363281 C 989.171875 15.898438 990.726562 15.507812 992.304688 15.195312 C 993.878906 14.878906 995.46875 14.644531 997.066406 14.488281 C 998.664062 14.328125 1000.269531 14.25 1001.875 14.25 C 1003.484375 14.25 1005.085938 14.328125 1006.683594 14.488281 C 1008.285156 14.644531 1009.871094 14.878906 1011.445312 15.195312 C 1013.023438 15.507812 1014.578125 15.898438 1016.117188 16.363281 C 1017.65625 16.828125 1019.167969 17.371094 1020.652344 17.984375 C 1022.136719 18.601562 1023.585938 19.285156 1025.003906 20.042969 C 1026.421875 20.800781 1027.796875 21.625 1029.132812 22.519531 C 1030.46875 23.410156 1031.757812 24.367188 1033 25.386719 C 1034.242188 26.40625 1035.433594 27.484375 1036.566406 28.621094 C 1037.703125 29.757812 1038.78125 30.945312 1039.800781 32.1875 C 1040.820312 33.429688 1041.777344 34.71875 1042.667969 36.054688 C 1043.5625 37.390625 1044.386719 38.769531 1045.144531 40.183594 C 1045.902344 41.601562 1046.589844 43.054688 1047.203125 44.539062 C 1047.820312 46.023438 1048.359375 47.535156 1048.824219 49.070312 C 1049.292969 50.609375 1049.683594 52.164062 1049.996094 53.742188 C 1050.308594 55.316406 1050.542969 56.90625 1050.703125 58.503906 C 1050.859375 60.101562 1050.9375 61.707031 1050.9375 63.3125 Z M 1050.9375 63.3125 " fill-opacity="1" fill-rule="nonzero"/></svg>