<?xml version="1.0" encoding="UTF-8"?><svg id="Capa_1" xmlns="http://www.w3.org/2000/svg" viewBox="0 0 1920 1080"><path d="M586.77,586.55l-33,18.8v-176.33h88.7v227.06h-88.7l-267.15-154.69,33-19.16v173.84h-88.7v-227.06h88.7l267.15,157.52Z" fill="#fff"/><path d="M903.24,663.18c-51.57,0-93.08-4.56-124.53-13.66-31.46-9.1-54.34-22.58-68.65-40.45-14.31-17.86-21.46-40.03-21.46-66.52s7.15-48.66,21.46-66.52c14.31-17.86,37.19-31.34,68.65-40.45,31.45-9.1,72.96-13.66,124.53-13.66s93.07,4.56,124.53,13.66c31.45,9.11,54.34,22.59,68.65,40.45,14.31,17.86,21.46,40.04,21.46,66.52s-7.16,48.67-21.46,66.52c-14.31,17.86-37.2,31.34-68.65,40.45-31.46,9.1-72.97,13.66-124.53,13.66ZM903.24,595.77c24.36,0,45.41-1.47,63.15-4.43,17.74-2.96,31.45-8.28,41.15-15.97,9.7-7.68,14.55-18.63,14.55-32.82s-4.85-25.13-14.55-32.82c-9.7-7.68-23.42-13-41.15-15.97-17.74-2.95-38.79-4.43-63.15-4.43s-45.71,1.48-64.04,4.43c-18.33,2.96-32.64,8.28-42.93,15.97-10.29,7.69-15.43,18.63-15.43,32.82s5.14,25.13,15.43,32.82c10.29,7.69,24.6,13.01,42.93,15.97,18.33,2.96,39.67,4.43,64.04,4.43Z" fill="#fff"/><path d="M1169.32,429.02h88.7v227.06h-88.7v-227.06Z" fill="#fff"/><path d="M1313,429.02h376.07v67.41l-258.28,106.79-2.84-14.55h261.12v67.41h-376.07v-67.41l259.35-106.79,2.84,14.55h-262.18v-67.41Z" fill="#fff"/><circle cx="1213.4" cy="358.96" r="50" fill="#d5f318"/></svg>